<svg width="67" height="77" fill="none" xmlns="http://www.w3.org/2000/svg"><g clip-path="url(#clip0)" filter="url(#filter0_d)"><path d="M21.217 32.392h-6.819v-.47h6.347v-20.93h.06v-.47h.412v21.87zm33.076 0h-6.819v-21.87h.45v.47h.022v20.93h6.347v.47z" fill="#DDD"/><path d="M21.217 10.925h-9.95V8.89h9.95v2.034zm-9.478-.47h9V9.369h-9v1.086zm45.686.47h-9.951V8.89h9.95v2.034zm-9.49-.47h9.001V9.369h-9.001v1.086zm-22.566 2.797h-.472V8.885h5.949v.47h-5.477v3.897zm0 5.54h-.472v-4.367h5.949v.467h-5.477v3.9zm0 5.537h-.472v-4.367h5.949v.47h-5.477v3.897z" fill="#DDD"/><path d="M23.427 7.498v22.001h1.707v-.47h-1.238V7.969h8.573V29.03h-5.832l-.622.47h6.926V7.497h-9.514z" fill="#DDD"/><path d="M25.369 30.034h-.472V25.5h5.949v.47h-5.477v4.065zm12.779-16.782h-.472V8.885h5.947v.47h-5.475v3.897zm0 5.54h-.472v-4.367h5.947v.467h-5.475v3.9zm0 5.537h-.472v-4.367h5.947v.47h-5.475v3.897z" fill="#DDD"/><path d="M35.884 7.498v22.001h2.027v-.47h-1.558V7.969h8.573V29.03h-5.51l-.622.47h6.604V7.497h-9.514z" fill="#DDD"/><path d="M38.148 30.034h-.472V25.5h5.947v.47h-5.475v4.065zM14.9 25.486h-.472v6.653h.472v-6.653zm39.39 0h-.471v6.653h.471v-6.653zM14.9 10.87h-.472v6.822h.472V10.87zm39.39-.165h-.471v6.99h.471v-6.99z" fill="#DDD"/><path d="M14.54 17.247H5.664v.448h8.876v-.448zm48.38 0h-8.875v.448h8.876v-.448zM40.005 4.687v.467h7.469v26.768H21.217V5.154h18.941v-.467H20.745v27.704h27.2V4.687h-7.94z" fill="#DDD"/><path d="M28.448 4.913V-.011H40.24v4.913l-11.792.01zm11.32.024V.47H28.92v4.478" fill="#DDD"/><path d="M12.592 39.59c2.199 0 4.536.73 6.14 2.306l-1.854 3.011c-1.056-.912-2.636-1.667-4.092-1.667-3.273 0-4.637 2.306-4.637 4.655 0 2.416 1.467 4.904 4.637 4.904 1.636 0 3.23-.89 4.364-2.007l2.062 2.92a8.966 8.966 0 01-6.598 2.737c-5.27 0-8.592-3.628-8.592-8.465C4 43.24 7.527 39.59 12.592 39.59zm8.751.274h4.012v12.889h6.688v3.421h-10.7v-16.31zm12.329 0h4.01v10.32c0 1.71 1.12 2.623 2.84 2.623 1.718 0 2.841-.913 2.841-2.623v-10.32h4.01v10.32c0 3.671-2.703 6.273-6.82 6.273-4.17 0-6.873-2.602-6.873-6.273l-.008-10.32zm17.07 0h6.025c3.273 0 5.567 1.462 5.567 4.267a3.976 3.976 0 01-1.909 3.468v.046c1.88.57 2.567 2.234 2.567 3.671 0 3.557-2.979 4.858-6.233 4.858h-6.017v-16.31zm6.072 6.32c1.006 0 1.443-.73 1.443-1.505 0-.774-.437-1.393-1.514-1.393h-1.989v2.898h2.06zm.343 6.569a1.643 1.643 0 001.256-.467 1.629 1.629 0 00.485-1.244c0-.913-.546-1.665-1.719-1.665h-2.425v3.376h2.403z" fill="#C79205"/><path d="M4.45 61.307h2.646c.5-.035 1.001.026 1.478.179.86.329 1.402 1.103 1.402 2.202 0 .815-.382 1.681-1.137 2.064v.02c.105.145.2.298.286.455l1.479 2.645H8.53l-1.35-2.55h-.87v2.55H4.45v-7.565zm2.668 3.43a.874.874 0 00.913-.556.862.862 0 00.052-.376c0-.383-.095-.668-.444-.815a1.813 1.813 0 00-.704-.103H6.31v1.841l.808.009zm4.506-3.43h4.763v1.588h-2.903v1.375H15.8v1.588h-2.316v1.429h3.05v1.585h-4.91v-7.565zm6.686 5.213a3.064 3.064 0 001.827.786c.521 0 .788-.234.788-.53 0-1.07-3.36-.899-3.36-3.259 0-1.398 1.16-2.319 2.755-2.319a3.613 3.613 0 012.381.858l-.788 1.513a2.754 2.754 0 00-1.68-.665c-.562 0-.819.23-.819.543 0 1.086 3.36.814 3.36 3.218 0 1.27-.946 2.36-2.7 2.36a3.945 3.945 0 01-2.755-1.087l.99-1.417zm5.834-5.213h1.86v7.566h-1.86v-7.566zm3.636 0h2.698c2.392 0 3.922 1.388 3.922 3.766 0 2.38-1.53 3.802-3.922 3.802h-2.7l.002-7.568zm2.627 5.974c1.285 0 2.073-.763 2.073-2.213 0-1.45-.818-2.172-2.073-2.172h-.767v4.39l.767-.005zm5.387-5.974h4.776v1.588h-2.916v1.375h2.319v1.588h-2.319v1.429h3.052v1.585h-4.91l-.002-7.565zm6.282 0h1.882l2.106 3.53c.235.419.448.85.638 1.29h.02s-.086-.815-.086-1.29v-3.53h1.86v7.566h-1.87l-2.114-3.53c-.236-.42-.449-.852-.639-1.293h-.03s.085.814.085 1.292v3.53h-1.86l.008-7.565zm11.778-.127a4.102 4.102 0 012.85 1.069l-.859 1.396a3.11 3.11 0 00-1.91-.771c-1.519 0-2.146 1.067-2.146 2.158 0 1.092.682 2.276 2.147 2.276a3.007 3.007 0 002.021-.931l.957 1.358a4.143 4.143 0 01-3.063 1.27c-2.455 0-3.985-1.68-3.985-3.926.003-2.205 1.64-3.9 3.988-3.9zm4.19.127h4.76v1.588h-2.9v1.375h2.316v1.588h-2.316v1.429h3.05v1.585h-4.91v-7.565z" fill="#FDFBFB"/></g><defs><clipPath id="clip0"><path fill="#fff" transform="translate(4)" d="M0 0h59v69H0z"/></clipPath><filter id="filter0_d" x="0" y="0" width="67" height="77" filterUnits="userSpaceOnUse" color-interpolation-filters="sRGB"><feFlood flood-opacity="0" result="BackgroundImageFix"/><feColorMatrix in="SourceAlpha" values="0 0 0 0 0 0 0 0 0 0 0 0 0 0 0 0 0 0 127 0"/><feOffset dy="4"/><feGaussianBlur stdDeviation="2"/><feColorMatrix values="0 0 0 0 0 0 0 0 0 0 0 0 0 0 0 0 0 0 0.25 0"/><feBlend in2="BackgroundImageFix" result="effect1_dropShadow"/><feBlend in="SourceGraphic" in2="effect1_dropShadow" result="shape"/></filter></defs></svg>