<svg width="70" height="96" fill="none" xmlns="http://www.w3.org/2000/svg"><path d="M9.694 40.979c.018 0 .026.026.026.08 0 .052-.008.079-.026.079H7.908a.54.54 0 01-.318-.093c-.088-.07-.243-.251-.463-.543-.22-.29-.6-.82-1.138-1.587l-.159-.225c-.38-.538-.657-.913-.834-1.125a1.558 1.558 0 00-.555-.463c-.186-.089-.433-.133-.741-.133h-.12v3.097c0 .264.027.463.08.595a.445.445 0 00.304.252c.159.044.402.066.728.066.018 0 .026.026.026.08 0 .052-.008.079-.026.079-.291 0-.52-.005-.688-.014l-.993-.013-.926.014c-.159.008-.384.013-.675.013-.017 0-.026-.027-.026-.08 0-.053.009-.08.026-.08.327 0 .565-.021.715-.065a.445.445 0 00.304-.252c.062-.132.093-.33.093-.595v-6.127c0-.265-.027-.459-.08-.582a.445.445 0 00-.304-.252c-.15-.053-.388-.08-.715-.08-.017 0-.026-.026-.026-.078 0-.053.009-.08.026-.08l.675.013c.37.018.675.027.913.027.265 0 .6-.009 1.006-.027l.675-.013c.018 0 .026.027.026.08 0 .052-.008.079-.026.079-.318 0-.556.026-.715.08a.526.526 0 00-.317.277c-.053.124-.08.318-.08.582v2.793c.477-.018.772-.027.887-.027h.172l1.535-2.13c.38-.52.57-.913.57-1.178 0-.265-.208-.397-.623-.397-.018 0-.026-.027-.026-.08 0-.052.008-.079.026-.079l.582.013a18.31 18.31 0 001.946 0l.502-.013c.027 0 .04.027.04.08 0 .052-.013.079-.04.079a2.32 2.32 0 00-1.243.37c-.397.248-.79.618-1.178 1.112l-1.773 2.25c.264.026.485.101.661.225.186.114.366.282.543.502.176.212.467.6.873 1.165.424.6.759 1.05 1.006 1.35.247.3.503.538.767.714.265.168.56.256.887.265zm.836.318c-.212 0-.38-.049-.503-.146-.124-.088-.185-.22-.185-.397 0-.326.198-.49.595-.49h.278c.494 0 .918-.313 1.27-.94.362-.626.631-1.406.808-2.341.185-.936.277-1.853.277-2.753 0-.423-.088-.728-.264-.913-.168-.194-.512-.291-1.032-.291-.027 0-.04-.027-.04-.08 0-.052.013-.079.04-.079h6.444c.018 0 .026.027.026.08 0 .052-.008.079-.026.079-.326 0-.569.026-.728.08a.49.49 0 00-.317.25c-.053.124-.08.318-.08.583v6.127c0 .264.027.463.08.595a.49.49 0 00.317.252c.159.044.402.066.728.066.018 0 .026.026.026.08 0 .052-.008.079-.026.079-.282 0-.507-.005-.675-.014l-.94-.013-.979.014c-.158.008-.388.013-.688.013-.017 0-.026-.027-.026-.08 0-.053.009-.08.026-.08.335 0 .578-.021.728-.065a.445.445 0 00.305-.252c.052-.123.079-.322.079-.595v-6.034c0-.3-.018-.499-.053-.596-.026-.097-.097-.159-.212-.185-.106-.027-.326-.04-.662-.04h-.727c-.265 0-.463.022-.596.066a.476.476 0 00-.29.278c-.063.141-.093.366-.093.675 0 .909-.089 1.906-.265 2.99-.168 1.086-.468 2.039-.9 2.86-.432.81-1.006 1.217-1.72 1.217zm16.353-8.43c.026 0 .04.027.04.08 0 .052-.014.079-.04.079-.238 0-.472.097-.702.291a2.08 2.08 0 00-.569.768l-2.805 6.206c-.159.353-.34.609-.543.767-.194.16-.445.239-.754.239-.291 0-.534-.067-.728-.199a.612.612 0 01-.29-.53c0-.158.052-.295.158-.41a.545.545 0 01.437-.185c.167 0 .29.044.37.133.088.088.168.211.238.37.044.106.089.19.133.252a.215.215 0 00.172.079c.088 0 .172-.044.251-.133.08-.088.163-.233.252-.436l.37-.82-2.898-5.453c-.194-.352-.37-.595-.53-.727-.15-.142-.352-.212-.608-.212-.018 0-.026-.027-.026-.08 0-.052.008-.079.026-.079l.477.013c.264.018.533.027.807.027.414 0 .816-.009 1.204-.027a8.21 8.21 0 01.49-.013c.026 0 .04.027.04.08 0 .052-.014.079-.04.079-.574 0-.86.145-.86.437 0 .097.039.22.118.37l2.33 4.394 1.879-4.182a.965.965 0 00.105-.437c0-.388-.33-.582-.992-.582-.027 0-.04-.027-.04-.08 0-.052.013-.079.04-.079l.556.013c.317.018.6.027.847.027.158 0 .353-.009.582-.027l.503-.013zm3.72 3.6c.936 0 1.686.176 2.25.529.565.353.847.913.847 1.68a2.42 2.42 0 01-1.337 2.197 3.181 3.181 0 01-1.442.318c-.238 0-.516-.014-.833-.04a25.698 25.698 0 00-.477-.027 12.754 12.754 0 00-.608-.013l-.927.014c-.167.008-.392.013-.674.013-.027 0-.04-.027-.04-.08 0-.053.013-.08.04-.08.317 0 .55-.021.7-.065a.445.445 0 00.305-.252c.053-.132.08-.33.08-.595v-6.127c0-.265-.027-.459-.08-.582a.445.445 0 00-.304-.252c-.141-.053-.37-.08-.688-.08-.018 0-.027-.026-.027-.078 0-.053.01-.08.027-.08h5.32c.079 0 .127.013.145.04.026.026.04.084.04.172l.158 1.786c0 .027-.026.044-.079.053-.044 0-.07-.013-.08-.04-.105-.555-.313-.983-.621-1.283-.3-.3-.67-.45-1.112-.45h-.688c-.273 0-.476.026-.609.08a.439.439 0 00-.278.25c-.053.124-.079.305-.079.543v2.515a9.777 9.777 0 011.072-.066zm.067 4.459c.662 0 1.142-.159 1.442-.476.31-.318.464-.794.464-1.43 0-.794-.203-1.367-.61-1.72-.396-.353-.97-.53-1.72-.53-.255 0-.493.018-.714.054v3.242c0 .291.075.507.225.648.159.141.463.212.913.212zm13.303.053c.027 0 .04.026.04.08 0 .052-.013.079-.04.079-.282 0-.507-.005-.675-.014l-.952-.013-1.046.014c-.15.008-.357.013-.622.013-.026 0-.04-.027-.04-.08 0-.053.014-.08.04-.08.336 0 .583-.021.741-.065.16-.044.265-.128.318-.252.053-.132.08-.33.08-.595v-3.083h-4.818v3.083c0 .264.027.463.08.595.053.124.159.208.318.252.158.044.405.066.74.066.018 0 .027.026.027.08 0 .052-.009.079-.026.079-.283 0-.508-.005-.675-.014l-1.02-.013-.939.014c-.167.008-.397.013-.688.013-.018 0-.026-.027-.026-.08 0-.053.008-.08.026-.08.326 0 .565-.021.715-.065.159-.044.264-.128.317-.252.062-.132.093-.33.093-.595v-6.127c0-.265-.027-.459-.08-.582a.445.445 0 00-.304-.252c-.15-.053-.388-.08-.714-.08-.027 0-.04-.026-.04-.078 0-.053.013-.08.04-.08l.674.013c.371.018.68.027.927.027.282 0 .626-.009 1.032-.027l.662-.013c.017 0 .026.027.026.08 0 .052-.009.079-.026.079-.327 0-.57.026-.728.08a.528.528 0 00-.331.277c-.053.124-.08.318-.08.582v2.713h4.817v-2.712c0-.265-.03-.46-.092-.583a.482.482 0 00-.318-.278c-.15-.053-.392-.08-.728-.08-.026 0-.04-.026-.04-.078 0-.053.014-.08.04-.08l.622.013c.406.018.755.027 1.046.027.247 0 .564-.009.952-.027l.675-.013c.027 0 .04.027.04.08 0 .052-.013.079-.04.079-.326 0-.564.026-.714.08a.489.489 0 00-.318.25c-.053.124-.08.318-.08.583v6.127c0 .264.027.463.08.595a.489.489 0 00.318.252c.15.044.388.066.714.066zm4.615-4.512c1.817 0 2.726.723 2.726 2.17 0 .502-.119.948-.357 1.336a2.31 2.31 0 01-.98.9 3.181 3.181 0 01-1.442.318c-.22 0-.485-.014-.794-.04a18.47 18.47 0 00-1.164-.04l-.86.014c-.177.008-.41.013-.702.013-.026 0-.04-.027-.04-.08 0-.053.014-.08.04-.08.327-.008.56-.03.702-.065a.44.44 0 00.29-.252c.063-.123.093-.322.093-.595v-6.127c0-.273-.026-.468-.08-.582a.44.44 0 00-.29-.252c-.141-.044-.375-.07-.701-.08-.018 0-.027-.026-.027-.078 0-.053.009-.08.026-.08l.636.013c.388.018.701.027.94.027.264 0 .6-.009 1.005-.027l.688-.013c.018 0 .027.027.027.08 0 .052-.01.079-.027.079-.335.009-.582.035-.741.08a.482.482 0 00-.318.264c-.061.123-.092.322-.092.596v2.633a8.845 8.845 0 011.442-.132zm-.304 4.459c.679 0 1.164-.159 1.455-.476.3-.327.45-.834.45-1.522 0-.768-.163-1.32-.49-1.654-.326-.336-.82-.503-1.481-.503-.318 0-.675.035-1.072.106v3.189c0 .291.075.507.225.648.15.141.454.212.913.212zm5.888-.86c0 .264.027.463.08.595a.44.44 0 00.29.252c.15.044.385.066.702.066.018 0 .027.026.027.08 0 .052-.01.079-.027.079-.282 0-.503-.005-.661-.014l-.953-.013-.927.014c-.167.008-.397.013-.688.013-.017 0-.026-.027-.026-.08 0-.053.009-.08.026-.08.318 0 .552-.021.702-.065a.445.445 0 00.304-.252c.053-.132.08-.33.08-.595v-6.127c0-.265-.027-.459-.08-.582a.445.445 0 00-.304-.252c-.15-.053-.384-.08-.702-.08-.017 0-.026-.026-.026-.078 0-.053.009-.08.026-.08l.688.013c.389.018.697.027.927.027.256 0 .578-.009.966-.027l.648-.013c.018 0 .027.027.027.08 0 .052-.01.079-.027.079-.309 0-.538.026-.688.08a.48.48 0 00-.304.277c-.053.124-.08.318-.08.582v6.1zm11.133.913c.018 0 .027.026.027.08 0 .052-.01.079-.027.079-.29 0-.52-.005-.688-.014l-.953-.013-1.032.014c-.159.008-.37.013-.635.013-.026 0-.04-.027-.04-.08 0-.053.014-.08.04-.08.335 0 .582-.021.741-.065.159-.044.265-.128.318-.252.053-.132.08-.33.08-.595v-5.307l-4.659 4.963v.344c0 .264.027.463.08.595.052.124.158.208.317.252.159.044.406.066.741.066.018 0 .027.026.027.08 0 .052-.01.079-.027.079-.282 0-.507-.005-.675-.014l-1.019-.013-.94.014c-.167.008-.396.013-.687.013-.018 0-.027-.027-.027-.08 0-.053.009-.08.027-.08.326 0 .564-.021.714-.065.159-.044.265-.128.318-.252.062-.132.093-.33.093-.595v-6.127c0-.265-.027-.459-.08-.582a.445.445 0 00-.304-.252c-.15-.053-.388-.08-.715-.08-.026 0-.04-.026-.04-.078 0-.053.014-.08.04-.08l.675.013c.37.018.68.027.926.027.283 0 .627-.009 1.032-.027l.662-.013c.018 0 .027.027.027.08 0 .052-.01.079-.027.079-.326 0-.569.026-.728.08a.528.528 0 00-.33.277c-.053.124-.08.318-.08.582v5.294l4.658-4.976v-.318c0-.264-.03-.458-.093-.582a.482.482 0 00-.317-.278c-.15-.053-.393-.08-.728-.08-.026 0-.04-.026-.04-.078 0-.053.014-.08.04-.08l.635.013c.406.018.75.027 1.032.027.247 0 .565-.009.953-.027l.688-.013c.018 0 .027.027.027.08 0 .052-.01.079-.027.079-.326 0-.564.026-.714.08a.489.489 0 00-.318.25c-.053.124-.08.318-.08.583v6.127c0 .264.027.463.08.595a.489.489 0 00.318.252c.15.044.388.066.714.066zm-4.499-8.906c.424 0 .72-.269.887-.807.07-.23.14-.397.211-.503.071-.106.19-.159.358-.159.14 0 .247.04.317.12.08.079.12.185.12.317 0 .212-.089.415-.265.609-.177.185-.41.335-.702.45a2.65 2.65 0 01-.913.158c-.317 0-.622-.057-.913-.172a1.946 1.946 0 01-.688-.45c-.176-.185-.265-.383-.265-.595a.46.46 0 01.106-.318.45.45 0 01.331-.119c.177 0 .3.053.37.16.071.105.142.273.212.502.062.238.155.432.278.582.133.15.318.225.556.225zM1.208 66.532h.811c.54 0 1.081-.221 1.622-.663.54-.46 1.048-1.188 1.524-2.188.442-.933.786-2.056 1.032-3.366.246-1.311.442-3.277.59-5.898l.32-5.284L4.5 48.05v-.565h14.377v.54l-2.286.345v18.161h2.114l.368 6.021h-.737l-2.556-5.406H4.132l-2.555 5.406H.839l.369-6.02zm12.68 0V48.101H7.844l-.393 6.316c-.18 2.703-.393 4.726-.639 6.07-.246 1.327-.581 2.474-1.007 3.44a7.621 7.621 0 01-.836 1.475c-.279.376-.532.663-.762.86-.23.196-.344.287-.344.27H13.89zm16.769 1.106c-1.786 0-3.384-.434-4.793-1.303-1.408-.868-2.506-2.08-3.293-3.637-.786-1.572-1.18-3.367-1.18-5.382 0-2.015.394-3.8 1.18-5.357.787-1.573 1.885-2.794 3.293-3.662 1.41-.868 3.007-1.302 4.793-1.302s3.383.434 4.792 1.302c1.409.869 2.507 2.09 3.293 3.662.786 1.556 1.18 3.342 1.18 5.357s-.394 3.81-1.18 5.382c-.786 1.557-1.884 2.77-3.293 3.637-1.41.869-3.006 1.303-4.792 1.303zm0-.565c1.18 0 2.236-.311 3.17-.934.95-.623 1.696-1.524 2.236-2.703.541-1.196.811-2.605.811-4.227v-3.785c0-1.622-.27-3.023-.81-4.202-.541-1.196-1.287-2.106-2.237-2.728-.934-.623-1.99-.934-3.17-.934-1.196 0-2.261.311-3.195.934-.934.622-1.671 1.532-2.212 2.728-.54 1.18-.81 2.58-.81 4.202v3.785c0 1.622.27 3.03.81 4.227.54 1.18 1.278 2.08 2.212 2.703.934.623 1.999.934 3.195.934zm21.806.32L45.139 48.37v17.276l2.36.983v.517h-5.26v-.517l2.31-.983V48.371l-2.26-.344v-.54h5.43l6.169 15.777 6.291-15.778h4.964v.54l-2.26.345v17.89l2.26.37v.516h-7.225v-.517l2.261-.368V49.108l-7.274 18.284h-.442z" fill="#DDD"/><path d="M32.664 57.647a1.89 1.89 0 11-3.78 0 1.89 1.89 0 013.78 0z" fill="#A68E52"/></svg>