<svg width="66" height="46" fill="none" xmlns="http://www.w3.org/2000/svg"><g clip-path="url(#clip0)" fill="#DDD"><path d="M2.583 36.998c-.391.008-.78-.06-1.144-.203a2.23 2.23 0 01-.813-.562 2.321 2.321 0 01-.466-.84A3.306 3.306 0 010 34.348c.001-.322.055-.64.16-.944.1-.313.258-.603.466-.855a2.463 2.463 0 011.957-.864h.466c.138-.007.277.006.411.038.131.037.257.042.383.07l.388.1a6.31 6.31 0 00.182 1.142.275.275 0 01-.126.033.35.35 0 01-.112 0 .104.104 0 01-.065-.085 1.29 1.29 0 00-.468-.741 1.485 1.485 0 00-.84-.222 2.145 2.145 0 00-.854.16 1.728 1.728 0 00-.621.44c-.177.197-.311.43-.392.684-.09.287-.134.587-.131.888-.005.34.048.68.159 1.001.099.286.247.551.438.784.177.214.397.388.645.51.246.12.516.181.789.18.19.007.38-.012.565-.057a1.017 1.017 0 00.639-.506 3.14 3.14 0 00.196-.439.191.191 0 01.187-.118h.084l.065.029c-.06.184-.126.387-.186.604a6.48 6.48 0 00-.154.66c-.256.042-.516.075-.78.1a16.03 16.03 0 01-.868.057zm3.459-2.654a2.742 2.742 0 01.724-1.88c.22-.24.485-.435.78-.575.29-.14.61-.213.933-.213.404-.007.805.066 1.181.217a2.337 2.337 0 011.33 1.417 3.1 3.1 0 01.164 1.006c.007.381-.062.76-.2 1.114a2.388 2.388 0 01-1.401 1.355 2.876 2.876 0 01-1.023.18 2.63 2.63 0 01-1.013-.19 2.258 2.258 0 01-.789-.537 2.46 2.46 0 01-.513-.841 3.077 3.077 0 01-.173-1.053zm2.675 2.267a1.564 1.564 0 001.19-.534 1.83 1.83 0 00.365-.59 2.31 2.31 0 00.121-.756 4.48 4.48 0 00-.121-1.053 2.623 2.623 0 00-.374-.845 1.744 1.744 0 00-.597-.562c-.26-.14-.551-.21-.845-.203-.21 0-.418.041-.612.123-.194.08-.369.201-.514.354-.154.165-.274.36-.354.571a2.132 2.132 0 00-.131.78c-.002.364.04.727.126 1.08.073.307.196.6.364.865.152.238.359.435.602.576.24.132.508.198.78.194zm9.132-4.675l.037-.061a.116.116 0 01.066-.048l.126-.028a1.46 1.46 0 01.22 0h.844a.695.695 0 010 .128c0 .084-.028.127-.08.132a.924.924 0 00-.373.108.209.209 0 00-.093.18v.208a6 6 0 00.033.67c.032.312.037.727.06 1.247.024.52.052 1.166.084 1.936a.277.277 0 00.103.222.974.974 0 00.383.118.085.085 0 01.06.042.178.178 0 010 .085.696.696 0 010 .128l-.494-.029h-1.317a.696.696 0 010-.127c0-.085.028-.128.08-.128.146-.023.289-.066.424-.127a.223.223 0 00.113-.213v-.292a4.889 4.889 0 00-.033-.652c-.033-.255-.028-.534-.038-.836-.009-.302-.028-.58-.037-.845-.01-.264 0-.472-.033-.685-.032-.212 0-.307 0-.35l-1.727 4.137a.53.53 0 01-.06.109.089.089 0 01-.075.033h-.07l-1.905-4.424v.382c.004.24-.007.48-.033.718-.033.274-.028.571-.042.883-.014.311-.028.594-.042.859-.014.265 0 .472-.033.661a2.23 2.23 0 000 .283c0 .16.176.274.528.34.051 0 .08.048.08.128a.696.696 0 010 .127l-.412-.028h-.695l-.397.029a.696.696 0 010-.128c0-.076.028-.113.08-.128.096-.022.188-.057.275-.103a.276.276 0 00.145-.227v-.397c-.005-.26.008-.52.037-.779.037-.302.028-.618.042-.944l.042-.944c.014-.298 0-.525.033-.709v-.283a.205.205 0 00-.098-.184 1.221 1.221 0 00-.37-.11c-.05 0-.079-.046-.079-.131a.714.714 0 010-.128h.934a1.46 1.46 0 01.22 0l.126.029c.026.007.05.024.065.047l.037.061 1.667 3.929 1.592-3.89zm3.861.424a.23.23 0 00-.121-.221 1.646 1.646 0 00-.43-.118.066.066 0 01-.065-.043.24.24 0 010-.09.714.714 0 010-.127l.5.029h2.581c.182 0 .308-.024.374-.024.065 0 .107.042.13.132.03.102.05.206.061.312.009.129.027.257.056.382.017.122.053.24.108.35a.117.117 0 01-.061.042h-.098a.123.123 0 01-.074-.015.128.128 0 01-.052-.056 3.308 3.308 0 00-.182-.363.94.94 0 00-.201-.246.714.714 0 00-.266-.137 1.488 1.488 0 00-.388-.042h-1.134v2.077h1.158a.226.226 0 00.224-.15c.05-.119.085-.243.107-.369a.126.126 0 01.14-.104.512.512 0 01.126 0c0 .133-.01.265-.028.397v.713c-.004.145.007.29.033.434a.456.456 0 01-.117 0 .22.22 0 01-.103 0 .094.094 0 01-.047-.085 1.394 1.394 0 00-.102-.363.231.231 0 00-.224-.156h-1.158v1.827c0 .104.066.175.201.217.153.045.309.078.467.1.06 0 .093.051.093.137a.664.664 0 010 .132h-1.61l-.467.028a.714.714 0 010-.127c0-.08.028-.123.08-.128.137-.031.273-.072.405-.123a.219.219 0 00.15-.217l-.066-4.004zm4.631 1.984c-.003-.356.063-.71.197-1.039a2.79 2.79 0 01.54-.826 2.55 2.55 0 01.767-.59c.292-.14.61-.213.933-.213a3.03 3.03 0 011.182.217c.306.127.583.319.81.562.228.244.402.534.51.85a3.1 3.1 0 01.164 1.006 2.92 2.92 0 01-.2 1.114 2.392 2.392 0 01-.557.83c-.242.234-.53.413-.844.526a2.876 2.876 0 01-1.023.179c-.346.004-.69-.06-1.013-.189a2.254 2.254 0 01-.789-.538 2.46 2.46 0 01-.513-.84 3.083 3.083 0 01-.164-1.049zm2.675 2.267a1.563 1.563 0 001.191-.534c.149-.176.263-.38.336-.6.083-.242.124-.498.121-.755a4.439 4.439 0 00-.116-1.053 2.619 2.619 0 00-.355-.836 1.743 1.743 0 00-.598-.562c-.26-.14-.55-.21-.845-.203a1.566 1.566 0 00-1.125.477c-.154.165-.275.36-.355.571a2.131 2.131 0 00-.13.78c-.003.364.04.727.126 1.08.071.307.193.599.36.865.148.234.35.43.588.571.244.14.522.21.803.203v-.004zm6.129-2.007h-.574v1.733a.23.23 0 00.159.236c.15.051.308.084.467.099.06 0 .093.056.093.137a.664.664 0 010 .132l-.509-.028h-1.055l-.5.028a.696.696 0 010-.127c0-.076.028-.114.084-.128.144-.017.284-.055.416-.113a.238.238 0 00.121-.227v-3.985a.255.255 0 00-.112-.227 1.135 1.135 0 00-.439-.113c-.05 0-.079-.047-.079-.132a.647.647 0 010-.128l.467.029H35.2a1.88 1.88 0 011.27.373 1.269 1.269 0 01.41.996c0 .123-.019.246-.055.364a1.423 1.423 0 01-.49.703 1.55 1.55 0 01-.467.25l1.298 1.828c.081.122.194.22.326.283.11.049.221.088.337.118.046 0 .07.047.07.109a.713.713 0 010 .141l-.434-.028h-.467a.518.518 0 01-.332-.142 1.77 1.77 0 01-.317-.363l-1.205-1.818zm-.163-.321c.297.019.593-.062.84-.232a.975.975 0 00.294-.817 1.51 1.51 0 00-.06-.448.903.903 0 00-.197-.354.934.934 0 00-.359-.236 1.497 1.497 0 00-.541-.086h-.388v2.173h.41zm6.568-2.173v4.203a.267.267 0 00.15.255c.16.064.328.102.5.114.056 0 .084.042.084.127a.712.712 0 010 .132l-.523-.028H40.65l-.532.028a.622.622 0 010-.132c0-.076.028-.113.079-.127a1.99 1.99 0 00.504-.119.253.253 0 00.154-.25v-4.202h-.803a1.384 1.384 0 00-.392.047.75.75 0 00-.275.142.844.844 0 00-.201.245c-.056.1-.117.217-.177.345a.093.093 0 01-.052.056h-.065a.235.235 0 01-.15-.047 6.03 6.03 0 00.117-.505l.07-.368a1.23 1.23 0 01.066-.222.116.116 0 01.112-.08h4.23c.024 0 .049.008.07.023.02.015.034.037.041.061.029.076.05.153.066.232.014.124.036.247.065.368.029.16.07.318.122.472l-.075.033a.199.199 0 01-.084 0h-.07a.098.098 0 01-.035-.021.098.098 0 01-.022-.035 3.287 3.287 0 00-.172-.345.865.865 0 00-.196-.245.719.719 0 00-.271-.142 1.374 1.374 0 00-.392-.047l-.831.033zm7.387 4.227a.193.193 0 00.117.189c.1.041.209.06.317.056h.85a1.14 1.14 0 00.387-.061.796.796 0 00.28-.17c.082-.08.151-.173.206-.274a2.26 2.26 0 00.158-.368.094.094 0 01.103-.043.2.2 0 01.084 0l.09.043a10.119 10.119 0 00-.192 1.095.14.14 0 01-.047.109.187.187 0 01-.093 0h-.332a3.312 3.312 0 00-.345 0h-2.433l-.523.028a.662.662 0 010-.127c0-.076.029-.114.08-.128.15-.019.296-.06.434-.123a.22.22 0 00.117-.208v-3.994a.244.244 0 00-.108-.227 1.271 1.271 0 00-.42-.113.085.085 0 01-.06-.043.174.174 0 010-.085.768.768 0 010-.132l.522.029h.995l.527-.029a.696.696 0 010 .128c0 .088-.028.135-.084.141-.17.014-.336.052-.495.114a.272.272 0 00-.158.273l.023 3.92zm5.219.018a.223.223 0 00.107.218c.13.058.266.1.406.123.052 0 .08.051.08.127a.696.696 0 010 .127l-.468-.028h-.933l-.467.029a.696.696 0 010-.128c0-.076.028-.113.08-.127.14-.02.276-.06.406-.118a.231.231 0 00.107-.223v-3.994a.244.244 0 00-.107-.227 1.254 1.254 0 00-.406-.113.074.074 0 01-.061-.047.232.232 0 010-.085.696.696 0 010-.128l.467.029h.933l.495-.029a.647.647 0 010 .128c0 .08-.028.122-.08.132-.14.014-.277.052-.406.113a.238.238 0 00-.107.227l-.046 3.995zm2.824-3.995a.227.227 0 00-.121-.221 1.65 1.65 0 00-.43-.118.066.066 0 01-.065-.043.236.236 0 010-.09.647.647 0 010-.127l.5.029h2.581c.182 0 .308-.024.373-.024.066 0 .108.042.131.132.03.102.05.206.061.312.009.129.027.257.056.382.017.122.053.24.107.35a.117.117 0 01-.06.042h-.08a.12.12 0 01-.126-.07 3.326 3.326 0 00-.182-.364.934.934 0 00-.2-.246.71.71 0 00-.267-.137 1.476 1.476 0 00-.387-.042h-1.158v2.077h1.158a.225.225 0 00.22-.15c.047-.12.081-.243.102-.369a.126.126 0 01.14-.104.51.51 0 01.126 0 2.03 2.03 0 01-.028.397c-.014.13-.014.261 0 .392v.32a2.11 2.11 0 00.033.435.456.456 0 01-.117 0 .225.225 0 01-.102 0 .092.092 0 01-.047-.085 1.363 1.363 0 00-.103-.363.23.23 0 00-.224-.156h-1.158v1.827c0 .104.066.175.2.217.154.045.31.078.468.1.06 0 .093.051.093.137a.712.712 0 010 .132h-1.61l-.467.028a.617.617 0 010-.127c0-.08.028-.123.079-.128.138-.032.274-.072.406-.123a.214.214 0 00.111-.083.22.22 0 00.038-.134l-.051-4.004zm6.106-.25v2.017H64.3a.229.229 0 00.224-.156c.05-.12.086-.245.108-.373a.128.128 0 01.05-.08.125.125 0 01.09-.024h.121a1.98 1.98 0 01-.028.392 1.753 1.753 0 000 .387v.326a2.1 2.1 0 00.033.434h-.117a.135.135 0 01-.15-.103 1.764 1.764 0 00-.107-.373.227.227 0 00-.224-.151h-1.214v1.855c0 .109.07.184.21.222.228.045.46.064.691.057h.44a.982.982 0 00.686-.246 1.28 1.28 0 00.228-.269 3.67 3.67 0 00.196-.345c0-.037.056-.056.117-.056.028 0 .055.009.08.023l.084.047a1.825 1.825 0 00-.122.36l-.098.396c-.026.109-.06.216-.098.321-.034.088-.076.132-.126.132h-3.119l-.467.029a.714.714 0 010-.128c0-.076.028-.113.08-.127a1.85 1.85 0 00.425-.118.224.224 0 00.13-.222V32.36a.22.22 0 00-.112-.217c-.14-.06-.288-.1-.438-.123-.052 0-.08-.057-.08-.132a.457.457 0 010-.066.392.392 0 010-.062l.56.033h2.54l.34-.023c.066 0 .113.042.136.132.028.102.048.206.06.311.01.13.028.26.057.388a.946.946 0 00.117.344.226.226 0 01-.14.047.129.129 0 01-.131-.07 4.398 4.398 0 00-.178-.35.896.896 0 00-.2-.24.718.718 0 00-.271-.142 1.388 1.388 0 00-.392-.047l-1.205-.034zM17.153 45.762v-1.795h.588a.896.896 0 01.654.236 1.013 1.013 0 010 1.318.895.895 0 01-.654.24h-.588zm.247-.218h.341a.65.65 0 00.467-.179.678.678 0 00.177-.505.627.627 0 00-.33-.629.61.61 0 00-.24-.065h-.429l.014 1.378zm2.942.208v-1.785h1.05v.199h-.779v.562h.63v.217h-.63v.576h.78v.217l-1.05.014zm3.235 0l-.644-1.79h.266l.439 1.262.07.245c.017-.083.039-.165.065-.245l.467-1.261h.261l-.644 1.79h-.28zm2.535.01v-1.794h1.032v.198h-.785v.562h.635v.217h-.635v.576h.826v.217l-1.073.024zm2.773-.01v-1.79h.247v1.573h.794v.217h-1.041zm2.447-.906a.956.956 0 01.18-.8.938.938 0 01.73-.354.925.925 0 01.73.355.948.948 0 01.18.799.955.955 0 01-.18.799.93.93 0 01-1.135.262.935.935 0 01-.505-.641.956.956 0 010-.42zm.256 0a.723.723 0 00.187.505.646.646 0 00.934 0 .724.724 0 00.187-.505.684.684 0 00-.187-.472.659.659 0 00-.934 0 .683.683 0 00-.191.472h.004zm3.277.906v-1.79h.649a.542.542 0 01.401.151.547.547 0 01.154.407.56.56 0 01-.154.41.541.541 0 01-.397.156h-.401v.661l-.252.005zm.247-.879h.37a.337.337 0 00.251-.094.355.355 0 00.094-.255.338.338 0 00-.094-.25.342.342 0 00-.252-.109h-.364l-.005.709zm2.545.879l.16-1.785h.256l.406.945.084.24c.033-.094.061-.174.089-.24l.406-.944h.257l.14 1.784h-.238l-.084-1.114v-.264l-.094.264-.355.803h-.219l-.35-.803-.093-.27c.005.09.005.18 0 .27l-.084 1.124-.28-.01zm3.558-.019v-1.765h1.017v.198h-.765v.567h.626v.212h-.626v.566h.812v.213l-1.064.01zm2.778.019v-1.785h.243l.789 1.143.144.26v-1.417h.243v1.785h-.243l-.789-1.157-.144-.26v1.417l-.243.014zm3.655-.005v-1.581h-.607v-.218h1.457v.218h-.607v1.562l-.243.02zM41.691 7.91v-.99l-2.838-1.14-1.97-.77v9.51h-.654V4.257l2.624 1.02V4.7l-2.624-1.232-.784-1.04h-5.098l-.785 1.04L26.94 4.7v.576l2.623-1.02v10.266h-.649v-9.51l-1.974.77-2.84 1.136v.992l-4.804 1.275v12.031l8.198 3.518h4.608v-2.29h1.588v2.318h4.593l8.198-3.517V9.18l-4.79-1.27zm-4.253.969V7.807l6.938 1.54v.58l-6.387-1.09v10.61l-.55.165V8.879zm6.938 1.7v7.942l-2.708.803V10.22l2.708.359zm-3.572-.472v9.443l-1.554.473V9.903l1.554.204zM30.893 3.32h4.01l.411.945h-4.832l.41-.945zm2.003 13.141h-1.868v-1.525h3.698v1.525h-1.83zm1.867.916v1.526h-3.697v-1.526h3.697zm-1.522-3.352h-2.175V6.423c0-.373.401-.613 1.522-.613h.653c1.12 0 1.522.24 1.522.613v7.603h-1.522zm-11.806-4.67l6.937-1.549v11.805l-.551-.16V8.841l-6.387 1.1v-.586zm5.135 10.676l-1.555-.472v-9.444l1.555-.203v10.119zm-5.136-9.444l2.708-.359v9.1l-2.707-.803v-7.938zm-1.69-.85l1.032-.226v8.83l-1.032-.307V9.738zm26.34 11.021l-7.768 3.202h-3.544v-2.692l-1.867-.566-1.867.566v2.692h-3.544l-7.768-3.202v-2.092l7.768 2.48h2.853v-.473l2.572-.76 2.563.746v.472h2.801l7.787-2.465.014 2.092zm0-2.73l-1.031.308v-8.83l1.031.227v8.296zM34.464 2.024L33.647.488c-.466 0-.592-.236-.737-.236-.145 0-.262.236-.738.236l-.817 1.535h3.11zm20.701 38.482h-44.64v.047h44.64v-.047z"/></g><defs><clipPath id="clip0"><path fill="#fff" transform="translate(0 .188)" d="M0 0h66v45.812H0z"/></clipPath></defs></svg>