<svg width="9" height="13" fill="none" xmlns="http://www.w3.org/2000/svg"><path d="M4.467 0A4.471 4.471 0 000 4.467c0 1.791 1.085 3.7 2.146 5.187a22.427 22.427 0 002.124 2.548.28.28 0 00.395 0s1.062-1.062 2.123-2.548C7.85 8.168 8.934 6.258 8.934 4.467A4.471 4.471 0 004.467 0zm0 .558a3.904 3.904 0 013.908 3.909c0 1.559-1.009 3.417-2.041 4.862-.934 1.307-1.697 2.068-1.867 2.241-.17-.173-.933-.934-1.866-2.24C1.568 7.883.558 6.025.558 4.466A3.904 3.904 0 014.467.558z" fill="#A68E52"/><path d="M4.467 2.512a1.958 1.958 0 00-1.954 1.955c0 1.076.878 1.955 1.954 1.955a1.96 1.96 0 001.955-1.955 1.96 1.96 0 00-1.955-1.955zm0 .559c.774 0 1.396.622 1.396 1.396 0 .774-.622 1.396-1.396 1.396a1.391 1.391 0 01-1.395-1.396c0-.774.62-1.396 1.395-1.396z" fill="#A68E52"/></svg>